PathFileType  4	(X/Y/Z) C:\Users\antoi\Documents\MyRepositories\mobilecap\ResultsAnalysis
DataRate	CameraRate	NumFrames	NumMarkers	Units	OrigDataRate	OrigDataStartFrame	OrigNumFrames
100.0	100.0	7	51	mm	100.0	1163	1328
Frame#	Time	r_knee			r_shank_antsup			r_ankle			r_calc			r_5meta			r_toe			L_knee			L_shank_antsup			L_ankle			L_calc			L_5meta			L_toe			r_sh2			r_sh3			r_sh4			L_sh2			L_sh3			r_thigh1			r_thigh2			r_thigh3			r_thigh4			r_thigh5			L_thigh1			L_thigh2			L_thigh3			L_thigh4			r.ASIS			r.PSIS			L.ASIS			L.PSIS			C7			R_Shoulder			L_Shoulder			R_Sternum			L_Sternum			R_humerus			R_elbow_med			R_elbow_lat			R_forearm			R_wrist_radius			R_wrist_ulna			L_humerus			L_elbow_med			L_elbow_lat			L_forearm			L_wrist_radius			L_wrist_ulna			R_HJC			L_HJC			R_HJC_reg			L_HJC_reg			
		X1	Y1	Z1	X2	Y2	Z2	X3	Y3	Z3	X4	Y4	Z4	X5	Y5	Z5	X6	Y6	Z6	X7	Y7	Z7	X8	Y8	Z8	X9	Y9	Z9	X10	Y10	Z10	X11	Y11	Z11	X12	Y12	Z12	X13	Y13	Z13	X14	Y14	Z14	X15	Y15	Z15	X16	Y16	Z16	X17	Y17	Z17	X18	Y18	Z18	X19	Y19	Z19	X20	Y20	Z20	X21	Y21	Z21	X22	Y22	Z22	X23	Y23	Z23	X24	Y24	Z24	X25	Y25	Z25	X26	Y26	Z26	X27	Y27	Z27	X28	Y28	Z28	X29	Y29	Z29	X30	Y30	Z30	X31	Y31	Z31	X32	Y32	Z32	X33	Y33	Z33	X34	Y34	Z34	X35	Y35	Z35	X36	Y36	Z36	X37	Y37	Z37	X38	Y38	Z38	X39	Y39	Z39	X40	Y40	Z40	X41	Y41	Z41	X42	Y42	Z42	X43	Y43	Z43	X44	Y44	Z44	X45	Y45	Z45	X46	Y46	Z46	X47	Y47	Z47	X48	Y48	Z48	X49	Y49	Z49	X50	Y50	Z50	X51	Y51	Z51	

1163	11.62000000	-222.34444	551.66713	-445.39665	-190.91426	429.43979	-438.15491	-291.06988	99.45965	-411.61763	-352.37715	64.11585	-461.13209	-164.47877	39.23102	-347.71815	-120.38038	62.28933	-416.61941	-260.83076	546.03875	-886.58366	-209.76536	441.50874	-887.92430	-293.10941	95.39179	-915.57891	-355.04214	67.16484	-869.89148	-152.08395	35.06708	-954.19024	-119.84045	61.18398	-886.75290	-192.55792	312.65421	-446.83348	-255.08829	425.16459	-395.43993	-250.86306	308.96498	-384.73200	-294.46897	445.85280	-918.91635	-277.80518	326.11684	-944.03833	-155.38854	794.41925	-483.04357	-145.34318	680.29033	-486.33953	-172.92101	654.72065	-429.72228	-243.64478	780.83813	-412.66743	-227.00490	662.97460	-419.58907	-226.92424	808.63453	-880.94477	-198.68183	674.11256	-886.03180	-336.36758	784.12303	-895.40266	-306.28762	649.32921	-896.71148	-198.68134	1037.26365	-526.06429	-397.59964	1105.68945	-591.72405	-226.72535	1033.04455	-790.45624	-409.20704	1106.55191	-690.47506	-312.90325	1575.77296	-643.61390	-212.94717	1522.24796	-463.40127	-223.41671	1541.32427	-816.60942	-169.48975	1506.69341	-635.67343	-171.58143	1504.35786	-669.45330	-169.01660	1362.60596	-393.12396	-221.86417	1132.29945	-420.05161	-173.75741	1164.49294	-343.45414	-73.23004	1251.38904	-442.41923	0.38355	1297.03943	-516.18601	25.63075	1264.40195	-523.17696	-169.05980	1394.92523	-914.33055	-193.16371	1159.47695	-938.35821	-139.02584	1211.65011	-988.56030	-80.54211	1285.49756	-854.72110	-2.97268	1325.30202	-779.29179	29.09818	1292.67104	-789.05435	-295.72144	972.89638	-551.69802	-316.91136	959.06541	-763.58410	-287.00652	968.68913	-554.40243	-307.49455	970.21272	-728.69223	
1164	11.63000000	-226.48879	552.62058	-445.91115	-194.89322	430.80684	-438.47527	-291.32445	99.45547	-411.72860	-352.42521	64.11942	-461.06927	-164.45998	39.20439	-347.56133	-120.34373	61.94759	-416.88596	-264.27934	546.36560	-885.03239	-213.21552	442.32730	-886.64554	-293.34759	95.61010	-916.09036	-355.16036	66.89013	-869.77702	-152.09321	35.09870	-954.10801	-119.95251	61.28893	-886.74589	-195.30023	314.03275	-446.47812	-259.50003	426.10406	-395.89924	-254.17182	310.18426	-384.84201	-297.96016	446.29056	-917.90525	-280.41066	326.48672	-942.98876	-154.62359	794.08528	-483.24079	-146.84717	679.65648	-486.82260	-175.20048	654.69013	-430.14243	-243.38542	782.13118	-413.23089	-229.03778	664.05714	-420.22007	-225.97716	808.36634	-880.70122	-200.26591	673.30619	-885.21279	-335.75531	785.92298	-894.57751	-308.31397	650.32050	-894.53250	-195.19807	1040.03502	-526.25939	-394.12744	1106.54671	-592.48497	-222.89209	1035.54417	-790.97644	-406.01501	1107.50599	-690.86227	-313.81487	1577.82118	-643.46726	-214.02189	1524.57209	-463.10217	-224.52260	1543.91992	-816.29879	-170.20868	1509.35222	-635.52192	-172.24737	1507.06493	-669.07870	-170.04901	1365.01539	-392.52886	-222.98333	1134.47480	-419.52389	-174.87147	1166.77908	-343.03091	-74.12995	1253.33898	-442.20592	-0.46710	1298.78289	-516.13884	24.71385	1266.03669	-522.97228	-170.57980	1397.63049	-914.68534	-195.30281	1162.19597	-938.79525	-141.09076	1214.20018	-989.09803	-82.02903	1287.63663	-855.23756	-4.12647	1327.18951	-779.73998	27.82978	1294.52148	-789.89230	-291.48239	974.76708	-552.16130	-312.36760	960.77644	-764.06742	-282.38624	970.36093	-554.57287	-303.46026	972.06320	-728.98853	
1165	11.64000000	-230.44465	553.45080	-446.33595	-198.69552	432.11115	-438.52901	-291.60761	99.41022	-411.86517	-352.47866	64.07153	-461.06499	-164.38392	39.20596	-347.42599	-120.41699	61.73141	-416.87411	-267.54486	546.80142	-883.76693	-216.48368	443.01041	-885.48503	-293.61886	95.98725	-916.72413	-355.24500	66.76327	-869.91025	-152.10378	35.10698	-954.06347	-120.03515	61.33933	-886.73284	-197.94230	315.36495	-446.07182	-263.76352	427.07337	-396.38983	-257.11355	311.13583	-385.14927	-301.34071	446.41588	-916.65168	-282.96297	326.87002	-942.15144	-154.01561	793.69445	-483.38215	-148.31094	678.99345	-487.08770	-177.37998	654.52801	-430.31841	-243.23630	783.24155	-413.61803	-231.03849	664.91819	-420.73534	-224.86147	807.95600	-880.33512	-201.62464	672.47328	-884.41662	-335.06222	787.48702	-893.81022	-310.09753	651.35496	-892.70263	-191.88740	1042.33968	-526.42623	-391.29068	1107.07694	-592.95467	-219.14047	1037.70632	-791.36390	-402.94069	1108.14412	-691.22799	-314.70018	1579.45739	-643.30458	-215.02560	1526.39510	-462.92004	-225.49672	1546.04610	-816.04377	-170.80293	1511.51645	-635.20615	-172.86997	1509.32804	-668.77323	-171.00360	1366.98774	-391.95233	-224.15334	1136.59469	-418.92373	-175.81597	1168.65255	-342.52296	-74.87945	1255.00035	-441.77745	-1.19187	1300.22598	-515.87609	23.90588	1267.33121	-522.75618	-171.97736	1399.84716	-915.05278	-197.30050	1164.38966	-939.15333	-143.11149	1216.23853	-989.64081	-83.40910	1289.42119	-855.89772	-5.13136	1328.74848	-780.47363	26.63352	1295.96309	-790.82763	-287.53913	976.22246	-552.55819	-308.02160	962.20196	-764.50145	-278.45128	971.60120	-555.11374	-299.14605	973.49636	-729.68956	
1166	11.65000000	-234.10509	554.20321	-446.69773	-202.30675	433.31886	-438.35378	-291.92788	99.37389	-411.99603	-352.52039	63.99466	-461.09787	-164.36299	39.22758	-347.31306	-120.57035	61.67294	-416.61111	-270.59180	547.33447	-882.84859	-219.49777	443.68305	-884.61395	-293.83013	96.26137	-917.11038	-355.28560	66.66774	-870.04341	-152.10957	35.08865	-954.06152	-120.05860	61.31818	-886.71572	-200.40177	316.56222	-445.61576	-267.74163	427.82339	-396.92495	-259.84798	311.95128	-385.31876	-304.50229	446.36044	-915.23749	-285.35656	327.23145	-941.43011	-153.69692	792.93992	-483.90424	-149.69194	678.31695	-487.05338	-179.37174	654.34386	-430.33445	-243.10934	784.04324	-414.02639	-232.96466	665.54993	-421.13699	-223.63185	807.46950	-879.93584	-202.68893	671.66392	-883.66593	-334.27015	788.75071	-892.97877	-311.52480	652.39300	-891.37224	-188.81036	1044.19074	-526.46711	-388.80511	1107.49357	-593.12633	-215.51702	1039.32005	-791.42166	-400.06932	1108.48402	-691.62580	-315.51565	1580.71297	-643.10953	-215.92615	1527.74504	-462.79852	-226.27267	1547.71587	-815.93580	-171.34227	1513.24808	-634.81641	-173.44502	1511.09242	-668.55595	-171.85897	1368.49624	-391.38644	-224.97745	1137.99894	-418.33016	-176.67663	1170.13879	-341.99529	-75.53610	1256.29176	-441.24410	-1.80846	1301.33716	-515.54223	23.28073	1268.39474	-522.32158	-173.23830	1401.51269	-915.38779	-199.21050	1166.08023	-939.41976	-145.07981	1217.70489	-990.04007	-84.65265	1290.80062	-856.56298	-6.07937	1329.91574	-781.36993	25.49531	1296.87846	-791.61840	-283.98135	977.37731	-552.70338	-303.98526	963.21404	-764.68279	-275.02829	972.76393	-555.48627	-295.00159	974.52006	-730.12365	
1167	11.66000000	-237.40569	554.89961	-446.79166	-205.59318	434.28886	-438.25729	-292.23677	99.37177	-412.07740	-352.52989	63.92232	-461.11120	-164.44282	39.16894	-347.20720	-120.69552	61.61534	-416.43911	-273.34853	547.74331	-881.99676	-222.24083	444.35053	-883.95364	-293.94202	96.41351	-917.25459	-355.29215	66.57408	-870.08025	-152.10474	35.05259	-954.08304	-120.01938	61.22634	-886.70569	-202.62519	317.52069	-445.20954	-271.35552	428.29898	-397.38241	-262.62810	312.74333	-385.12581	-307.30453	446.55058	-914.35282	-287.43880	327.54325	-940.80824	-153.52167	791.87381	-484.58017	-150.84852	677.63643	-486.83630	-181.16475	654.11556	-430.42521	-243.00999	784.64641	-414.45832	-234.72489	666.12158	-421.44247	-222.42554	807.00534	-879.54186	-203.51013	670.90159	-883.01295	-333.35249	789.86495	-892.24517	-312.62185	653.34063	-890.40677	-186.00515	1045.60612	-526.32586	-386.39474	1107.59702	-593.32284	-212.08006	1040.52075	-791.39645	-397.40914	1108.59157	-691.91615	-316.25032	1581.61665	-643.02722	-216.75427	1528.69716	-462.64874	-226.81584	1548.92190	-815.85593	-171.94036	1514.62927	-634.71981	-173.98203	1512.41088	-668.37474	-172.54707	1369.57473	-390.83834	-225.43803	1138.59714	-417.83747	-177.50363	1171.21898	-341.52887	-76.18076	1257.15165	-440.79610	-2.34359	1302.14033	-515.19264	22.79867	1269.25020	-521.65826	-174.30972	1402.65568	-915.70808	-201.03556	1167.31495	-939.67969	-146.94529	1218.73506	-990.47048	-85.79600	1291.69282	-857.15989	-6.96967	1330.59131	-782.16851	24.44360	1297.34344	-792.34353	-280.72284	978.17435	-552.75786	-300.19907	963.89249	-764.77882	-271.72748	973.46525	-555.63645	-291.24759	975.22891	-730.36304	
1168	11.67000000	-240.34821	555.42096	-446.79094	-208.38530	435.06437	-438.19535	-292.47053	99.39378	-412.08111	-352.52602	63.82530	-461.10617	-164.53484	38.99521	-347.10678	-120.76418	61.49950	-416.40501	-275.78882	547.95614	-881.09427	-224.68548	444.90982	-883.33565	-293.99861	96.60105	-917.38670	-355.27258	66.52523	-870.08939	-152.09836	35.00662	-954.14606	-119.94087	61.09629	-886.70842	-204.58210	318.29097	-444.89527	-274.42219	428.64719	-397.69973	-265.04662	313.21971	-385.12933	-309.72795	446.85791	-913.98447	-289.15921	327.81223	-940.32796	-153.14816	790.97464	-484.60374	-151.76830	676.89888	-486.54979	-182.75571	653.72172	-430.54781	-242.99387	785.19868	-414.81290	-236.23432	666.62403	-421.64592	-221.25124	806.55453	-879.09757	-204.14649	670.19389	-882.55756	-332.36566	790.89950	-891.65399	-313.49921	654.11655	-889.45922	-183.46005	1046.65602	-526.01408	-384.04473	1107.23753	-593.77026	-208.83270	1041.55793	-791.51486	-394.98441	1108.38962	-692.17436	-316.88633	1582.19423	-643.05674	-217.52617	1529.27857	-462.43543	-227.22154	1549.67190	-815.72995	-172.53424	1515.67408	-634.74720	-174.48346	1513.42650	-668.22892	-173.09659	1370.26043	-390.35911	-226.04405	1139.20047	-417.44773	-178.20485	1171.84479	-341.14191	-76.74230	1257.63275	-440.45137	-2.77705	1302.67290	-514.76005	22.38907	1269.77858	-521.16397	-175.15425	1403.36945	-916.03519	-202.63326	1168.08491	-939.93050	-148.60142	1219.39948	-990.94046	-86.86304	1292.16976	-857.72777	-7.76785	1330.85131	-782.88176	23.50905	1297.48095	-793.13903	-277.66022	978.57921	-552.92722	-296.50914	964.33830	-765.00746	-268.40150	973.61593	-555.63483	-287.85287	975.66550	-730.60628	
1169	11.68000000	-242.83415	555.72837	-446.99466	-210.65939	435.81145	-437.98808	-292.61623	99.43654	-412.03382	-352.54361	63.68241	-461.09614	-164.53970	38.81337	-347.01943	-120.78348	61.37007	-416.33385	-277.93379	548.03377	-880.22921	-226.81417	445.35021	-882.75123	-294.03350	96.76603	-917.44125	-355.23042	66.49753	-870.10163	-152.09622	34.94853	-954.24176	-119.85219	60.95514	-886.71880	-206.21674	318.98453	-444.60711	-276.90022	429.03899	-397.86776	-266.65658	313.30146	-385.59332	-311.88178	446.89550	-913.54716	-290.65355	328.01857	-939.89054	-152.53571	790.39299	-483.89940	-152.57396	676.13172	-486.18677	-184.10659	653.23541	-430.36584	-243.01525	785.65430	-415.03355	-237.46451	666.94314	-421.73244	-220.03016	806.11702	-878.80815	-204.61648	669.56419	-882.33951	-331.35118	791.82614	-891.19120	-314.19645	654.74352	-888.49351	-181.11492	1047.39652	-525.63405	-381.87300	1106.61466	-594.30372	-205.72746	1042.36983	-791.59274	-392.71697	1107.82408	-692.65811	-317.42563	1582.51432	-643.08921	-218.23249	1529.48160	-462.18668	-227.59561	1550.02601	-815.65339	-172.98812	1516.37075	-634.59559	-174.93260	1514.19927	-668.07891	-173.61371	1370.54496	-389.99695	-226.89058	1140.03292	-417.14539	-178.70286	1172.02800	-340.84055	-77.13007	1257.79048	-440.12791	-3.09502	1302.95618	-514.28768	22.03703	1269.92677	-520.98987	-175.80484	1403.68472	-916.32139	-203.97912	1168.43507	-940.13516	-149.96718	1219.47772	-991.08850	-87.80739	1292.32014	-858.28513	-8.49554	1330.78725	-783.53640	22.67005	1297.29927	-793.90306	-274.81376	978.69546	-553.13913	-292.89505	964.50259	-765.28903	-265.31262	973.64532	-555.51962	-284.63404	975.79982	-730.75884	
